<?xml version="1.0" encoding="UTF-8"?>
<svg id="Layer_2" xmlns="http://www.w3.org/2000/svg" viewBox="0 0 214.91 151.41">
  <defs>
    <style>
      .cls-1 {
        fill: #fff;
      }
    </style>
  </defs>
  <path d="M95.19,40.58c.57-.39,1.14-.91,1.71-1.6,2.46-2.92,3.1-6.45,6.05-9.06,3.24-2.87,7.56-4.48,11.87-4.57,5.19-.1,9.6,2.14,12.82,6.16,3.02,3.77,3.25,11.27,9.18,10.02.21-.04-.18-3.08-.03-3.41.76-1.67.35-.59,1.98-1.38,1.92-.91,6.07-.26,8.1-.02,6.43.76,1.73,4.22,4.83,7.23.9.87,2.15,1.27,3.25,1.87,11.85,6.53,10.55,28.7,10.18,39.82-.29,8.75,1.82,24.01-6.19,30.04-4.74,3.57-14.72,1.36-20.31,1.39-19.26.1-38.52.21-57.78.21-3.62,0-6.29,2.18-10.13,2.25-9.22.17-21.99,3.33-24.89-7.64-1.91-7.22-.75-14.77-1.21-22.11-.41-6.61-.65-13.27.16-19.86,1.44-11.72,6.04-23.55,17.96-27.62,7.54-2.58,16.03-2.7,23.83-1.38,3.67.62,6.19,1.34,8.63-.34Z"/>
  <path class="cls-1" d="M62.68,51.71s-10.05,6.7,2.09,5.44c0,0,10.47-7.96-2.09-5.44Z"/>
  <circle class="cls-1" cx="115.34" cy="79.5" r="28.28"/>
  <circle cx="115.82" cy="79.73" r="25.51"/>
  <circle class="cls-1" cx="115.5" cy="79.69" r="20.94"/>
  <path d="M115.35,74.2c2.04-1.32,4.67-3.8,7.23-3.77,4.82.05,6.12,7.25,4.16,11.01,0,0-5.02,9.63-11.3,10.47-6.05.81-12.7-9.36-12.12-14.32.42-3.61,1.97-7.94,6.48-6.87,2.12.51,4.02,1.98,5.38,3.6.06-.04.12-.08.18-.12Z"/>
</svg>